# xmcd
#
# Track frame offsets:
# 150
# 23987
# 45969
# 72300
# 95267
# 114676
# 134316
# 164865
#
# Disc length: 2551 seconds
#
#
# Revision: 3
# Processed by: cddbd v1.5.1PL2 Copyright (c) Steve Scherf et al.
# Submitted via: FreeRIP 2.52 
#
DISCID=6b09f508
DTITLE=Melhem Zein - Inti Mcheeti
DYEAR=2004
DGENRE=Pop
TTITLE0=Redou Habibi
TTITLE1=Kellma Ghabet El Chams
TTITLE2=Nami
TTITLE3=Ya Zghiri
TTITLE4=Meish Nassiki
TTITLE5=Samhek Allah
TTITLE6=Wehyat Aynek
TTITLE7=Enti Mcheeti
EXTD=YEAR: 2004
EXTT0=
EXTT1=
EXTT2=
EXTT3=
EXTT4=
EXTT5=
EXTT6=
EXTT7=
PLAYORDER=
